<?xml version="1.0" encoding="utf-8"?>
<!-- Generator: Adobe Illustrator 26.5.2, SVG Export Plug-In . SVG Version: 6.00 Build 0)  -->
<svg version="1.1" id="Ebene_1" xmlns="http://www.w3.org/2000/svg" xmlns:xlink="http://www.w3.org/1999/xlink" x="0px" y="0px"
	 viewBox="0 0 123.4 140.6" style="enable-background:new 0 0 123.4 140.6;" xml:space="preserve">
<style type="text/css">
	.st0{fill:#90CCDD;}
	.st1{fill:#6CBBD2;}
	.st2{fill:#B1DDE8;}
	.st3{fill:#FFFFFF;}
	.st4{fill:#37586D;}
</style>
<polygon class="st0" points="61.5,69.9 3.3,37 3.2,103.3 "/>
<polygon class="st1" points="61.5,69.9 3.2,103.3 61.4,137 "/>
<polygon class="st1" points="61.5,69.9 61.4,137 119.7,103.5 "/>
<polygon class="st2" points="61.5,69.9 119.7,103.5 119.8,36.2 "/>
<polygon class="st2" points="61.5,69.9 119.8,36.2 61.6,3 "/>
<polygon class="st0" points="61.5,69.9 61.6,3 3.3,37 "/>
<g>
	
		<image style="overflow:visible;opacity:0.15;" width="448" height="150" xlink:href="88CD3F52.png"  transform="matrix(0.24 0 0 0.24 9.1649 67.9653)">
	</image>
	<g>
		<g>
			<path d="M16.3,92.9c-1.3,0-2.2-0.3-2.8-0.9c-0.6-0.6-0.9-1.5-0.9-2.7V71.7h3.7v18.2h2v2.9H16.3z"/>
			<path d="M21,77.9h3.7v2.5h0.1c0.3-0.9,0.8-1.5,1.5-2c0.7-0.5,1.6-0.8,2.6-0.8c1.9,0,3.4,0.7,4.4,2c1,1.3,1.5,3.3,1.5,5.8
				c0,2.5-0.5,4.4-1.5,5.8c-1,1.4-2.5,2-4.4,2c-1,0-1.9-0.3-2.6-0.8c-0.7-0.5-1.2-1.2-1.5-2.1h-0.1v8.2H21V77.9z M27.7,90.2
				c1,0,1.7-0.3,2.3-0.9c0.6-0.6,0.9-1.5,0.9-2.5v-2.6c0-1.1-0.3-1.9-0.9-2.6c-0.6-0.6-1.4-1-2.3-1c-0.9,0-1.6,0.2-2.2,0.7
				c-0.6,0.4-0.9,1-0.9,1.7v4.7c0,0.8,0.3,1.4,0.9,1.8C26.1,90,26.9,90.2,27.7,90.2z"/>
			<path d="M38.2,77.9h3.7v16.7c0,1.3-0.3,2.2-0.9,2.9c-0.6,0.7-1.6,1-3,1h-2v-2.9h2.3V77.9z M40,75.8c-0.8,0-1.3-0.2-1.6-0.5
				c-0.3-0.3-0.5-0.8-0.5-1.3v-0.6c0-0.5,0.2-1,0.5-1.3c0.3-0.3,0.9-0.5,1.6-0.5c0.7,0,1.3,0.2,1.6,0.5s0.5,0.8,0.5,1.3v0.6
				c0,0.5-0.2,1-0.5,1.3S40.7,75.8,40,75.8z"/>
			<path d="M46.1,92.9V77.9h3.7v2.5h0.1c0.3-0.8,0.7-1.4,1.4-2c0.6-0.6,1.5-0.8,2.6-0.8c1,0,1.9,0.2,2.7,0.7
				c0.7,0.5,1.3,1.2,1.7,2.3h0.1c0.3-0.8,0.8-1.5,1.6-2.1c0.8-0.6,1.8-0.9,3-0.9c1.5,0,2.6,0.5,3.4,1.5c0.8,1,1.2,2.4,1.2,4.3v9.4
				h-3.7v-9.1c0-2.1-0.8-3.2-2.4-3.2c-0.4,0-0.7,0.1-1,0.2c-0.3,0.1-0.6,0.3-0.9,0.5c-0.3,0.2-0.5,0.4-0.6,0.7
				c-0.2,0.3-0.2,0.6-0.2,1v9.9h-3.7v-9.1c0-2.1-0.8-3.2-2.4-3.2c-0.3,0-0.7,0.1-1,0.2c-0.3,0.1-0.6,0.3-0.9,0.5
				c-0.3,0.2-0.5,0.4-0.6,0.7c-0.2,0.3-0.2,0.6-0.2,1v9.9H46.1z"/>
			<path d="M75.1,92.9c-1.3,0-2.2-0.3-2.8-0.9c-0.6-0.6-0.9-1.5-0.9-2.7V71.7h3.7v18.2h2v2.9H75.1z"/>
			<path d="M79.8,71.7h3.7v12.7h0.1l2-2.7l3.3-3.8h4.1L88,83.7l5.7,9.1h-4.3l-3.8-6.7l-2,2.1v4.5h-3.7V71.7z"/>
			<path d="M97.7,75.8c-0.8,0-1.3-0.2-1.6-0.5c-0.3-0.3-0.5-0.8-0.5-1.3v-0.6c0-0.5,0.2-1,0.5-1.3c0.3-0.3,0.9-0.5,1.6-0.5
				c0.7,0,1.3,0.2,1.6,0.5s0.5,0.8,0.5,1.3v0.6c0,0.5-0.2,1-0.5,1.3S98.5,75.8,97.7,75.8z M95.9,77.9h3.7v14.9h-3.7V77.9z"/>
			<path d="M108.4,92.9c-1.3,0-2.2-0.3-2.9-1c-0.7-0.7-1-1.6-1-2.8v-8.2h-2.2v-2.9h1.1c0.6,0,0.9-0.1,1.1-0.4
				c0.2-0.3,0.3-0.6,0.3-1.2v-2.5h3.3v4.1h3.1v2.9h-3.1v9h2.8v2.9H108.4z"/>
		</g>
	</g>
</g>
<g>
	
		<image style="overflow:visible;opacity:0.15;" width="244" height="86" xlink:href="88CD3F56.png"  transform="matrix(0.24 0 0 0.24 33.6449 99.8854)">
	</image>
	<g>
		<g>
			<path class="st3" d="M37.1,115v-11.6h2.5v9.4H44v2.3H37.1z"/>
			<path class="st3" d="M45.9,115v-11.6h5.5c0.5,0,1,0.1,1.5,0.3s0.8,0.4,1.1,0.8c0.3,0.3,0.5,0.7,0.7,1.2c0.2,0.5,0.3,1,0.3,1.5
				c0,0.6-0.1,1.1-0.3,1.5c-0.2,0.5-0.4,0.8-0.7,1.2c-0.3,0.3-0.7,0.6-1.1,0.8s-0.9,0.3-1.5,0.3h-3v4.2H45.9z M48.4,108.6h2.7
				c0.4,0,0.7-0.1,0.9-0.3c0.2-0.2,0.3-0.5,0.3-0.9v-0.7c0-0.4-0.1-0.7-0.3-0.9c-0.2-0.2-0.5-0.3-0.9-0.3h-2.7V108.6z"/>
			<path class="st3" d="M62.5,103.3v8.3c0,0.5-0.1,1-0.3,1.5c-0.2,0.4-0.4,0.8-0.8,1.1c-0.3,0.3-0.7,0.5-1.2,0.7
				c-0.5,0.2-1,0.3-1.6,0.3c-0.6,0-1.1-0.1-1.5-0.2c-0.4-0.2-0.8-0.4-1.1-0.7c-0.3-0.3-0.6-0.6-0.8-1c-0.2-0.4-0.3-0.8-0.4-1.3
				l2.4-0.5c0.2,1,0.7,1.5,1.5,1.5c0.4,0,0.7-0.1,0.9-0.4c0.3-0.2,0.4-0.6,0.4-1.1v-6.1h-3.5v-2H62.5z"/>
			<path class="st3" d="M64.9,115v-8.8h2.5v1.5h0.1c0.2-0.5,0.4-0.9,0.8-1.2s0.9-0.5,1.6-0.5c0.6,0,1.1,0.2,1.5,0.5s0.7,0.7,0.9,1.3
				h0c0.1-0.2,0.2-0.5,0.4-0.7s0.4-0.4,0.6-0.6c0.2-0.2,0.5-0.3,0.8-0.4c0.3-0.1,0.6-0.1,0.9-0.1c0.8,0,1.5,0.3,1.9,0.9
				c0.5,0.6,0.7,1.5,0.7,2.6v5.5h-2.5v-5.3c0-1.1-0.4-1.7-1.2-1.7c-0.4,0-0.7,0.1-1,0.3c-0.3,0.2-0.5,0.5-0.5,1v5.7H70v-5.3
				c0-1.1-0.4-1.7-1.2-1.7c-0.2,0-0.4,0-0.5,0.1c-0.2,0-0.3,0.1-0.5,0.2c-0.1,0.1-0.3,0.2-0.3,0.4s-0.1,0.3-0.1,0.6v5.7H64.9z"/>
			<path class="st3" d="M79.9,115v-11.6h2.5v9.4h4.4v2.3H79.9z"/>
		</g>
	</g>
</g>
<g>
	
		<image style="overflow:visible;opacity:0.15;" width="99" height="202" xlink:href="88CD3F51.png"  transform="matrix(0.24 0 0 0.24 71.8049 20.6854)">
	</image>
	<g>
		<g>
			<path class="st4" d="M79.6,29.2l3.1,1.4l3.1-1.4l0-5c2.5,0.9,4.2,2.9,4.3,5.1c0.1,2.2-1.3,4.3-3.7,5.4l0.2,18.4
				c2.4,1.1,3.8,3.2,3.7,5.4c-0.1,2.2-1.8,4.2-4.3,5.1l0-5l-3-1.4l-3.1,1.4l0,5c-2.5-0.9-4.2-2.9-4.3-5.1c-0.1-2.2,1.3-4.3,3.7-5.4
				l-0.2-18.4c-2.4-1.1-3.8-3.2-3.7-5.4c0.1-2.2,1.8-4.2,4.3-5.1L79.6,29.2z"/>
		</g>
	</g>
</g>
<g>
	
		<image style="overflow:visible;opacity:0.15;" width="144" height="201" xlink:href="88CD3F53.png"  transform="matrix(0.24 0 0 0.24 44.4449 20.6854)">
	</image>
	<g>
		<g>
			<path class="st4" d="M57.7,61.9c0.9-0.9,1.4-2,1.6-3.1l1.5-5.1l1.4,5.1c0.1,0.4,0.2,0.9,0.4,1.3c1.2,2.9,4.6,4.3,7.5,3.1
				c2.9-1.2,4.3-4.6,3.1-7.5c-1.2-2.9-4.6-4.3-7.5-3.1c-0.6,0.2-1.1,0.6-1.5,0.9l0-6.1l-0.9-2.4l4.4-15.3l-1.3-5.4l-5.5,14.2
				l-5.3-14.3l-1.4,5.4l4.2,15.2l-0.9,2.4l0,6.1c-2.3-1.9-5.6-1.8-7.8,0.3c-2.2,2.2-2.3,5.9-0.1,8.1C51.8,64.1,55.5,64.1,57.7,61.9
				 M59.8,46.3c0.6-0.6,1.5-0.6,2,0c0.6,0.6,0.6,1.5,0,2c-0.6,0.6-1.5,0.6-2,0C59.2,47.8,59.3,46.9,59.8,46.3 M66.8,55.2
				c1.5-0.6,3.1,0.1,3.7,1.6c0.6,1.5-0.1,3.1-1.5,3.7c-1.5,0.6-3.1-0.1-3.7-1.6C64.6,57.5,65.3,55.8,66.8,55.2 M51.7,55.7
				c1.1-1.1,3-1.1,4.1,0c1.1,1.1,1.1,3,0,4.1c-1.1,1.1-3,1.1-4.1,0C50.5,58.7,50.5,56.8,51.7,55.7"/>
		</g>
	</g>
</g>
<g>
	
		<image style="overflow:visible;opacity:0.15;" width="116" height="204" xlink:href="88CD3F50.png"  transform="matrix(0.24 0 0 0.24 29.3249 20.2054)">
	</image>
	<g>
		<g>
			<path class="st4" d="M51.4,28.7l-6-2.8c-0.2-0.1-0.5-0.2-0.8-0.2l-1.8,0l0-0.9c0-0.5-0.4-0.9-0.9-0.9l-1.9,0
				c-0.5,0-0.9,0.4-0.9,0.9l0,0.9l-5.4-0.1c-0.5,0-0.9,0.4-0.9,0.9l0,5.9c0,0.5,0.4,0.9,0.9,0.9l5.2,0.1l-1.1,29.4
				c0,0.5,0.4,0.9,0.9,0.9l3.6,0.1c0.5,0,0.9-0.4,0.9-0.9L43,33.4l1.5,0c0.3,0,0.6-0.1,0.8-0.2l6.1-3c0.3-0.2,0.5-0.5,0.5-0.8
				C51.9,29.1,51.7,28.8,51.4,28.7"/>
		</g>
	</g>
</g>
</svg>
